<?xml version="1.0" encoding="UTF-8"?>
<svg id="Logo" xmlns="http://www.w3.org/2000/svg" version="1.1" viewBox="0 0 779.1 204.5">
  <defs>
    <style>
      .cls-1 {
        fill: #ee7100;
      }

      .cls-1, .cls-2 {
        stroke-width: 0px;
      }

      .cls-2 {
        fill: #54565a;
      }
    </style>
  </defs>
  <path class="cls-1" d="M206.6,154.4c-4.8,0-9.1-2.7-11.2-7l-26.1-54.5-26.1,54.5c-2.1,4.3-6.4,7-11.2,7h0c-4.8,0-9.1-2.7-11.2-7l-26.1-54.5-17.6,36.8h11.9c6.8,0,12.4,5.6,12.4,12.4s-5.6,12.4-12.4,12.4h-31.5c-4.3,0-8.2-2.2-10.5-5.8-2.3-3.6-2.5-8.1-.7-12l37.3-77.9c2.1-4.3,6.4-7,11.2-7h0c4.8,0,9.1,2.7,11.2,7l26.1,54.5,26.1-54.5c2.1-4.3,6.4-7,11.2-7h0c4.8,0,9.1,2.7,11.2,7l26.1,54.5,26.1-54.5c3-6.2,10.4-8.8,16.5-5.8,6.2,3,8.8,10.4,5.8,16.5l-37.3,77.9c-2.1,4.3-6.4,7-11.2,7Z"/>
  <path class="cls-2" d="M730.6,127.2c0-8.2-3.5-13.3-11.5-13.3s-5.9,1.2-7.3,2.5v-1.9h-8.2v29h8.2v-15.9c0-5,2-6.6,5.3-6.6s5.3,1.5,5.3,6.7v15.7h8.2v-16.4ZM678.6,125.8c.3-2.9,2.1-5.2,5.1-5.2s5.3,2.6,5.6,5.2h-10.7ZM684.1,114c-7.9,0-13.8,6.2-13.8,15.2s5.7,15.1,14.6,15.1,8.6-1.7,11.1-4.7l-5.8-4.5c-1.2,1.3-3.1,2-5.3,2s-6.1-1.5-6.4-5.5h18.6c0-.6.1-1.3.1-2.4,0-8.3-4.8-15.2-13.1-15.2M663.8,103.3l-8.2,3.8v9.1c-1.5-1.3-3.8-2.3-6.6-2.3-7.7,0-12.1,6.1-12.1,14.8s5.4,15.5,12.1,15.5,5-1.2,6.6-2.4v1.8h8.2v-40.3ZM650.6,137c-3.2,0-5.3-2.5-5.3-8.5s1.7-7.4,4.9-7.4,4.3.9,5.5,2.5v11c-1.2,1.4-2.5,2.4-5,2.4M630.4,114.6h-8.2v29h8.2v-29ZM626.3,103.5c-2.5,0-4.7,2-4.7,4.4s2.1,4.4,4.7,4.4,4.7-2,4.7-4.4-2.1-4.4-4.7-4.4M596.9,125.8c.3-2.9,2.1-5.2,5.1-5.2s5.3,2.6,5.6,5.2h-10.7ZM602.4,114c-7.9,0-13.8,6.2-13.8,15.2s5.7,15.1,14.6,15.1,8.6-1.7,11.1-4.7l-5.8-4.5c-1.2,1.3-3.1,2-5.3,2s-6.1-1.5-6.4-5.5h18.6c0-.6.1-1.3.1-2.4,0-8.3-4.8-15.2-13.1-15.2M577.5,104.9l-3.6,18.9c-.4,1.8-.8,4.8-1,6.4-.3-1.6-.9-4.5-1.4-6.4l-4.9-18.9h-7.2l-4.9,18.9c-.5,1.9-1.1,4.8-1.4,6.4-.2-1.6-.7-4.5-1-6.4l-3.6-18.9h-8.6l8.6,38.7h7.8l5.2-19.9c.6-2.3,1.2-5.2,1.4-6.6.2,1.4.8,4.3,1.4,6.6l5.1,19.9h8.1l8.6-38.7h-8.5ZM535.9,127.8h-13.5v7.1h13.5v-7.1ZM503.6,137c-3.2,0-5.3-2.5-5.3-8.5s1.7-7.4,4.9-7.4,4.3.9,5.5,2.5v11c-1.2,1.4-2.5,2.4-5,2.4M516.8,114.6h-8.2v1.7c-1.5-1.3-3.8-2.3-6.6-2.3-7.7,0-12.1,6.1-12.1,14.8s5.4,15.5,12.1,15.5,5-1.2,6.6-2.4c0,4.5-1.7,5.9-8.1,6.7l2.9,5.8c10.9-1.1,13.4-6,13.4-15.6v-24.1ZM481.7,114c-2.9,0-5,1.2-6.4,2.5v-1.9h-8.2v29h8.2v-15.7c0-5,2.1-6.3,5.3-6.3s3.4.8,4.7,1.9l2.1-7.5c-1.1-1.1-3.1-2-5.7-2M442.1,125.8c.3-2.9,2.1-5.2,5.1-5.2s5.3,2.6,5.6,5.2h-10.7ZM447.6,114c-7.9,0-13.8,6.2-13.8,15.2s5.7,15.1,14.6,15.1,8.6-1.7,11.1-4.7l-5.8-4.5c-1.2,1.3-3.1,2-5.3,2s-6.1-1.5-6.4-5.5h18.6c0-.6.1-1.3.1-2.4,0-8.3-4.8-15.2-13.1-15.2M415.8,137c-2.4,0-4.3-.9-5.5-2.5v-10.9c1.2-1.4,2.5-2.4,5-2.4s5.3,2.5,5.3,8.5-1.7,7.4-4.9,7.4M416.8,114c-3,0-5,1.2-6.6,2.4v-13.1l-8.2,3.8v36.5h8.2v-1.7c1.5,1.3,3.8,2.3,6.6,2.3,7.7,0,12.1-6.1,12.1-14.8s-5.4-15.5-12.1-15.5M394.5,127.2c0-8.2-3.1-13.3-11.1-13.3s-7.8,1.7-9.9,3.7c-2.3-2.7-4.6-3.7-8.6-3.7s-5.4,1.2-6.8,2.5v-1.9h-8.2v29h8.2v-15.9c0-5,1.7-6.6,5-6.6s5,1.5,5,6.7v15.7h8.2v-15.9c0-5,1.7-6.6,5-6.6s5,1.5,5,6.7v15.7h8.2v-16.4ZM327.9,104.9h-8l-15.9,38.7h8.9l3.3-8.6h15.1l3.3,8.6h9.1l-15.7-38.7ZM319,127.6l2.7-7c.8-2.3,1.7-4.6,2.1-6,.4,1.4,1.2,3.8,2.1,6l2.7,7h-9.5Z"/>
  <path class="cls-2" d="M414.9,51.8h-8.3v14.8h-17v-14.8h-8.3v38.7h8.3v-16.3h17v16.3h8.3v-38.7ZM375.7,51.8h-32.1v7.6h11.9v31.1h8.3v-31.1h11.9v-7.6ZM323,83.5c-5.8,0-9.8-4.5-9.8-12.3s3.8-12.2,9.6-12.2,9.8,4.5,9.8,12.3-3.8,12.2-9.6,12.2M323,51.2c-10.8,0-18.3,7.5-18.3,20s7.4,19.9,18.2,19.9,18.3-7.5,18.3-20-7.4-19.9-18.2-19.9"/>
  <metadata>
    <sfw xmlns="http://ns.adobe.com/SaveForWeb/1.0/">
      <slices/>
      <sliceSourceBounds x="-7770" y="-8489.14" width="16383" height="16383" bottomLeftOrigin="true"/>
    </sfw>
  </metadata>
</svg>